<?xml version="1.0" encoding="utf-8"?>
<svg id="master-artboard" viewBox="0 0 472.7453918457031 317.47418212890625" version="1.1" xmlns="http://www.w3.org/2000/svg" x="0px" y="0px" style="enable-background:new 0 0 1400 980;" width="472.7453918457031px" height="317.47418212890625px"><rect id="ee-background" x="0" y="0" width="472.7453918457031" height="317.47418212890625" style="fill: white; fill-opacity: 0; pointer-events: none;"/>
<path d="M 222.2984619140625 377.5747375488281 L 201.44847106933594 377.5747375488281 L 201.44847106933594 332.93475341796875 C 201.44847106933594 327.4214172363281 200.52513122558594 323.28472900390625 198.678466796875 320.5247497558594 C 196.83180236816406 317.7713928222656 193.92514038085938 316.3947448730469 189.95846557617188 316.3947448730469 C 184.62513732910156 316.3947448730469 180.75180053710938 318.354736328125 178.33847045898438 322.2747497558594 C 175.92514038085938 326.1947326660156 174.71847534179688 332.64141845703125 174.71847534179688 341.61474609375 L 174.71847534179688 377.5747375488281 L 153.86846923828125 377.5747375488281 L 153.86846923828125 301.1447448730469 L 169.7984619140625 301.1447448730469 L 172.5984649658203 310.92474365234375 L 173.7584686279297 310.92474365234375 C 175.81179809570312 307.4180603027344 178.77513122558594 304.67138671875 182.64846801757812 302.68475341796875 C 186.5218048095703 300.7047424316406 190.9651336669922 299.7147216796875 195.9784698486328 299.7147216796875 C 207.41845703125 299.7147216796875 215.16513061523438 303.451416015625 219.21847534179688 310.92474365234375 L 221.0584716796875 310.92474365234375 C 223.11180114746094 307.37139892578125 226.13180541992188 304.61474609375 230.11846923828125 302.65472412109375 C 234.10513305664062 300.6947326660156 238.60513305664062 299.7147216796875 243.61846923828125 299.7147216796875 C 252.27847290039062 299.7147216796875 258.831787109375 301.93475341796875 263.2784729003906 306.374755859375 C 267.7184753417969 310.8214111328125 269.9384765625 317.9447326660156 269.9384765625 327.7447509765625 L 269.9384765625 377.5747375488281 L 249.01846313476562 377.5747375488281 L 249.01846313476562 332.93475341796875 C 249.01846313476562 327.4214172363281 248.0984649658203 323.28472900390625 246.2584686279297 320.5247497558594 C 244.41180419921875 317.7713928222656 241.505126953125 316.3947448730469 237.53846740722656 316.3947448730469 C 232.43179321289062 316.3947448730469 228.61514282226562 318.21807861328125 226.08847045898438 321.86474609375 C 223.56179809570312 325.51141357421875 222.2984619140625 331.2980651855469 222.2984619140625 339.2247314453125 L 222.2984619140625 377.5747375488281 ZM 322.951904296875 314.54473876953125 C 318.53192138671875 314.54473876953125 315.0685729980469 315.94805908203125 312.5619201660156 318.7547302246094 C 310.05523681640625 321.55474853515625 308.6185607910156 325.5314025878906 308.25189208984375 330.68475341796875 L 337.51190185546875 330.68475341796875 C 337.4185791015625 325.5314025878906 336.07525634765625 321.55474853515625 333.4819030761719 318.7547302246094 C 330.88189697265625 315.94805908203125 327.3719177246094 314.54473876953125 322.951904296875 314.54473876953125 M 325.89190673828125 378.9447326660156 C 313.5852355957031 378.9447326660156 303.96856689453125 375.5480651855469 297.0419006347656 368.7547302246094 C 290.115234375 361.96807861328125 286.65191650390625 352.3514099121094 286.65191650390625 339.90472412109375 C 286.65191650390625 327.09808349609375 289.8518981933594 317.19805908203125 296.2519226074219 310.2047424316406 C 302.6585693359375 303.2113952636719 311.51190185546875 299.7147216796875 322.8119201660156 299.7147216796875 C 333.6119079589844 299.7147216796875 342.02191162109375 302.7914123535156 348.0419006347656 308.9447326660156 C 354.05523681640625 315.09808349609375 357.0618896484375 323.59808349609375 357.0618896484375 334.4447326660156 L 357.0618896484375 344.55474853515625 L 307.77191162109375 344.55474853515625 C 307.9985656738281 350.4814147949219 309.7552490234375 355.1080627441406 313.0419006347656 358.43475341796875 C 316.3218994140625 361.76141357421875 320.9219055175781 363.42474365234375 326.8419189453125 363.42474365234375 C 331.4485778808594 363.42474365234375 335.8019104003906 362.9447326660156 339.90191650390625 361.9847412109375 C 344.00189208984375 361.0314025878906 348.2852478027344 359.5047302246094 352.75189208984375 357.40472412109375 L 352.75189208984375 373.54473876953125 C 349.105224609375 375.36474609375 345.20855712890625 376.71807861328125 341.0619201660156 377.604736328125 C 336.9152526855469 378.4980773925781 331.85858154296875 378.9447326660156 325.89190673828125 378.9447326660156 ZM 371.06158447265625 367.79473876953125 C 371.06158447265625 363.96807861328125 372.0849304199219 361.0747375488281 374.131591796875 359.11474609375 C 376.1849060058594 357.15472412109375 379.17156982421875 356.17474365234375 383.0915832519531 356.17474365234375 C 386.87158203125 356.17474365234375 389.7982482910156 357.1780700683594 391.87158203125 359.18475341796875 C 393.9449157714844 361.19140625 394.9815979003906 364.0614013671875 394.9815979003906 367.79473876953125 C 394.9815979003906 371.3947448730469 393.9349060058594 374.2347412109375 391.8415832519531 376.3147277832031 C 389.7415771484375 378.3880615234375 386.8249206542969 379.42474365234375 383.0915832519531 379.42474365234375 C 379.2649230957031 379.42474365234375 376.30157470703125 378.4080810546875 374.20159912109375 376.3747253417969 C 372.1082458496094 374.34808349609375 371.06158447265625 371.4880676269531 371.06158447265625 367.79473876953125 Z" transform="matrix(1, 0, 0, 1, -40.732086181640625, -184.49252319335938)" style="fill: rgb(54, 54, 54); white-space: pre; color: rgb(51, 51, 51);"/></svg>