<?xml version="1.0" encoding="utf-8"?>
<svg id="master-artboard" viewBox="0 0 1400 980" version="1.1" xmlns="http://www.w3.org/2000/svg" x="0px" y="0px" style="enable-background:new 0 0 1400 980;" width="1400px" height="980px"><defs><style id="ee-google-fonts">@import url(https://fonts.googleapis.com/css?family=Rubik:300,300italic,400,400italic,500,500italic,700,700italic,900,900italic);</style></defs><rect id="ee-background" x="0" y="0" width="1400" height="980" style="fill: white; fill-opacity:0; pointer-events: none;"/>
<g transform="matrix(1.8091504573822021, 0, 0, 1.8091504573822021, -495.14005421016043, 316.670928955078)"><g id="g-1" transform="matrix(1, 0, 0, 1, 0, 0)">
	<g id="g-2">
		<path class="st0" d="M652,46c27.6,0,50,22.4,50,50s-22.4,50-50,50s-50-22.4-50-50S624.4,46,652,46z" style="fill: rgb(51, 51, 51);"/>
	</g>
</g></g><g transform="matrix(1.8091504573822021, 0, 0, 1.8091504573822021, -756.304835010175, 314.2749831341255)"><g id="g-3" transform="matrix(1, 0, 0, 1, 0, 0)">
	<g id="g-4">
		<path class="st0" d="M652,46c27.6,0,50,22.4,50,50s-22.4,50-50,50s-50-22.4-50-50S624.4,46,652,46z" style="fill: rgb(51, 51, 51);"/>
	</g>
</g></g><g transform="matrix(1.8091504573822021, 0, 0, 1.8091504573822021, -235.17338738961553, 317.86896206724566)"><g id="g-5" transform="matrix(1, 0, 0, 1, 0, 0)">
	<g id="g-6">
		<path class="st0" d="M652,46c27.6,0,50,22.4,50,50s-22.4,50-50,50s-50-22.4-50-50S624.4,46,652,46z" style="fill: rgb(51, 51, 51);"/>
	</g>
</g></g><g transform="matrix(1.8091504573822021, 0, 0, 1.8091504573822021, -496.3381517939123, 315.473027008652)"><g id="g-7" transform="matrix(1, 0, 0, 1, 0, 0)">
	<g id="g-8">
		<path class="st0" d="M652,46c27.6,0,50,22.4,50,50s-22.4,50-50,50s-50-22.4-50-50S624.4,46,652,46z" style="fill: rgb(51, 51, 51);"/>
	</g>
</g></g></svg>